<?xml version="1.0" encoding="utf-8"?>
<!-- Generator: Adobe Illustrator 16.0.3, SVG Export Plug-In . SVG Version: 6.00 Build 0)  -->
<!DOCTYPE svg PUBLIC "-//W3C//DTD SVG 1.1//EN" "http://www.w3.org/Graphics/SVG/1.1/DTD/svg11.dtd">
<svg version="1.1" id="Ebene_1" xmlns="http://www.w3.org/2000/svg" xmlns:xlink="http://www.w3.org/1999/xlink" x="0px" y="0px"
	 width="175.6577148px" height="89.2265625px" viewBox="0 0 175.6577148 89.2265625"
	 enable-background="new 0 0 175.6577148 89.2265625" xml:space="preserve">
<polygon fill-rule="evenodd" clip-rule="evenodd" fill="#9DBBE1" points="175.6577148,0.0014648 101.4858398,0.0014648 
	93.7514648,73.5908203 168.7514648,65.7080078 "/>
<path fill-rule="evenodd" clip-rule="evenodd" fill="#FFFFFF" d="M121.3735352,16.7719727h5.2148438l-10.8408203,24.3637695
	h-5.6357422l-5.703125-24.3637695h5.2158203l3.0595703,14.496582c0.1660156,0.8588867,0.3232422,1.8540039,0.4765625,2.9916992
	c0.1523438,1.1430664,0.2402344,1.9335938,0.2617188,2.3769531c0.2265625-1.0234375,0.8291016-2.809082,1.8095703-5.3686523
	L121.3735352,16.7719727z M145.0668945,41.1357422h-5.8632813l-5.3027344-10.2651367l-2.3476563,1.5639648l-0.9150391,8.7011719
	h-5.1640625l2.5615234-24.3637695h5.1630859l-1.171875,11.1469727l2.3378906-2.8666992l7.4619141-8.2802734h5.7324219
	l-9.6240234,10.7827148L145.0668945,41.1357422z M167.7416992,28.7207031
	c-0.421875,4.0097656-1.8818359,7.0805664-4.3867188,9.2133789c-2.5107422,2.1323242-5.9160156,3.2016602-10.2265625,3.2016602
	h-6.6845703l4.4013672-4.2651367h3.2207031c4.9707031,0,7.7373047-2.6733398,8.2988281-8.019043
	c0.5498047-5.2319336-1.484375-7.8486328-6.1015625-7.8486328h-3.6826172l-3.5478516-4.230957h7.4072266
	c3.9755859,0,6.953125,1.0522461,8.9335938,3.1503906C167.3481445,22.0214844,168.137207,24.9560547,167.7416992,28.7207031z
	 M148.5874023,21.4038086l6.0380859,7.203125l-7.4951172,7.2504883l-0.0683594,0.0668945L148.5874023,21.4038086z"/>
<polygon fill-rule="evenodd" clip-rule="evenodd" fill="#005EB8" points="84.3759766,74.5761719 92.2143555,0 8.7700195,0 
	0,83.4433594 55.0209961,89.2265625 56.2504883,77.5322266 "/>
<path fill="#FFFFFF" d="M71.6245117,24.8393555c0.081543-0.7744141,0.3632813-1.3442383,0.8515625-1.7084961
	c0.487793-0.3583984,1.0649414-0.5410156,1.7373047-0.5410156c0.7231445,0,1.2773438,0.1992188,1.6625977,0.5981445
	c0.3852539,0.4042969,0.5439453,0.9511719,0.4702148,1.6513672c-0.0712891,0.6777344-0.3500977,1.2192383-0.8256836,1.6235352
	c-0.4746094,0.3989258-1.0649414,0.5981445-1.7768555,0.5981445c-0.6723633,0-1.2114258-0.1821289-1.6235352-0.5410156
	C71.7084961,26.1552734,71.5449219,25.597168,71.6245117,24.8393555"/>
<path fill="#FFFFFF" d="M64.324707,24.8393555c0.0766602-0.7231445,0.3393555-1.2758789,0.7963867-1.668457
	c0.4624023-0.387207,1.046875-0.5810547,1.7587891-0.5810547c0.7348633,0,1.2885742,0.2050781,1.6611328,0.6147461
	c0.3725586,0.4101563,0.5258789,0.9570313,0.4545898,1.6347656c-0.0708008,0.6723633-0.3374023,1.2075195-0.8071289,1.6118164
	c-0.4643555,0.4047852-1.0551758,0.6098633-1.7788086,0.6098633c-0.7119141,0-1.2553711-0.1933594-1.6352539-0.5869141
	C64.3989258,26.0869141,64.2514648,25.5400391,64.324707,24.8393555"/>
<path fill="#FFFFFF" d="M79.8256836,29.5214844l-1.6601563,15.7949219
	c-0.1894531,1.7998047-0.7597656,3.3828125-1.7055664,4.7382813c-0.9516602,1.3623047-2.2226563,2.3984375-3.8256836,3.1220703
	c-1.6020508,0.7236328-3.4404297,1.0878906-5.5253906,1.0878906c-3.1328125,0-5.4858398-0.8027344-7.0537109-2.4150391
	c-1.5683594-1.6064453-2.203125-3.8046875-1.909668-6.6015625l1.6533203-15.7265625h5.1547852l-1.5703125,14.9404297
	c-0.1982422,1.8852539,0.0390625,3.2636719,0.6982422,4.140625c0.6645508,0.8828125,1.871582,1.3222656,3.6206055,1.3222656
	c1.6914063,0,2.9628906-0.4453125,3.8183594-1.328125c0.8564453-0.8828125,1.3842773-2.2724609,1.5830078-4.1630859
	l1.5673828-14.9121094H79.8256836z"/>
<path fill="#FFFFFF" d="M55.2578125,41.4887695c-0.421875,4.015625-1.8837891,7.0913086-4.3930664,9.2270508
	c-2.5136719,2.1357422-5.9243164,3.2070313-10.2416992,3.2070313h-6.9033203l2.5644531-24.4013672h7.6552734
	c3.9814453,0,6.9633789,1.0541992,8.9467773,3.1557617C54.8637695,34.7788086,55.6542969,37.7177734,55.2578125,41.4887695
	 M49.8735352,41.6196289c0.5507813-5.2402344-1.4868164-7.8603516-6.1118164-7.8603516h-2.7509766L39.340332,49.6513672h2.2211914
	C46.5400391,49.6513672,49.3105469,46.9736328,49.8735352,41.6196289z"/>
<path fill="#FFFFFF" d="M14.9399414,29.5214844h7.5922852c3.4633789,0,5.9238281,0.4897461,7.3803711,1.4755859
	c1.4628906,0.9853516,2.0791016,2.5517578,1.8525391,4.7045898c-0.1533203,1.4580078-0.6206055,2.6538086-1.402832,3.5883789
	c-0.78125,0.934082-1.7519531,1.4980469-2.9052734,1.6855469l-0.0170898,0.1655273
	c1.5068359,0.3476563,2.5556641,0.9912109,3.1396484,1.9370117c0.5898438,0.9453125,0.7993164,2.2041016,0.6347656,3.7705078
	c-0.234375,2.2265625-1.2246094,3.9580078-2.9624023,5.2060547c-1.7373047,1.2470703-3.9838867,1.8681641-6.746582,1.8681641H12.375
	L14.9399414,29.5214844z M19.0947266,39.1933594h3.0078125c1.4008789,0,2.4375-0.2167969,3.1152344-0.6499023
	c0.6728516-0.4379883,1.0615234-1.1557617,1.1669922-2.1582031c0.0986328-0.9399414-0.1733398-1.6064453-0.8134766-2.0166016
	c-0.640625-0.4042969-1.7016602-0.609375-3.1821289-0.609375h-2.7231445L19.0947266,39.1933594z M18.6640625,43.2944336
	l-0.668457,6.3569336h3.3720703c1.4296875,0,2.5068359-0.2734375,3.2421875-0.8203125
	c0.7397461-0.5410156,1.1640625-1.3789063,1.2822266-2.5009766c0.2124023-2.0224609-1.1279297-3.0356445-4.0214844-3.0356445
	H18.6640625z"/>
<path fill="#FFFFFF" d="M109.3813477,55.6972656l-1.7822266-7.4238281h-0.0498047
	c-0.0478516,1.1035156-0.125,2.1367188-0.2285156,3.1015625l-0.4628906,4.3222656h-1.3173828l0.9511719-8.8896484h2.0478516
	l1.7128906,7.0722656h0.0351563l3.2988281-7.0722656h2.0546875l-0.9511719,8.8896484h-1.3974609l0.4707031-4.3964844
	c0.0478516-0.4423828,0.1191406-1.0175781,0.2177734-1.7265625c0.0966797-0.7099609,0.1640625-1.1396484,0.1962891-1.2890625
	h-0.0498047l-3.4619141,7.4121094H109.3813477z"/>
<path fill="#FFFFFF" d="M120.168457,49.9326172c-0.4541016,0-0.8330078,0.1435547-1.1376953,0.4316406
	c-0.3046875,0.2890625-0.5117188,0.7099609-0.625,1.2617188h3.0507813c0.0507813-0.5556641-0.0371094-0.9765625-0.265625-1.2636719
	C120.9624023,50.0761719,120.6206055,49.9326172,120.168457,49.9326172 M119.7993164,55.8222656
	c-1.0458984,0-1.8310547-0.3056641-2.3544922-0.9150391c-0.5244141-0.6103516-0.7285156-1.453125-0.6142578-2.5234375
	c0.1181641-1.0976563,0.484375-1.9628906,1.0976563-2.5917969c0.6152344-0.6289063,1.3994141-0.9423828,2.3564453-0.9423828
	c0.8857422,0,1.5585938,0.2705078,2.0146484,0.8095703c0.4570313,0.5390625,0.6347656,1.2822266,0.5341797,2.2285156
	l-0.0830078,0.7714844h-4.4775391c-0.0517578,0.6523438,0.0712891,1.1542969,0.3652344,1.5048828
	c0.296875,0.3505859,0.7451172,0.5244141,1.3486328,0.5244141c0.3964844,0,0.7695313-0.0371094,1.1201172-0.1113281
	c0.3505859-0.0751953,0.7333984-0.1992188,1.1445313-0.3740234l-0.125,1.1621094
	c-0.3662109,0.1660156-0.7314453,0.2841797-1.0957031,0.3525391
	C120.668457,55.7871094,120.2563477,55.8222656,119.7993164,55.8222656z"/>
<path fill="#FFFFFF" d="M129.7143555,55.6972656h-1.4335938l0.4443359-4.1455078
	c0.0546875-0.5146484-0.0009766-0.8984375-0.1699219-1.1523438c-0.1660156-0.2529297-0.4570313-0.3789063-0.8701172-0.3789063
	c-0.5517578,0-0.9736328,0.1777344-1.2695313,0.5371094s-0.4882813,0.9560547-0.5771484,1.7910156l-0.3583984,3.3486328h-1.4296875
	l0.7197266-6.7226563h1.1181641l0.1074219,0.8798828h0.0722656c0.2207031-0.3222656,0.5175781-0.5693359,0.890625-0.7431641
	c0.3740234-0.1748047,0.7734375-0.2617188,1.1982422-0.2617188c1.0341797,0,1.6806641,0.3525391,1.9414063,1.0585938h0.0976563
	c0.234375-0.3320313,0.5419922-0.5917969,0.9208984-0.7783203c0.3818359-0.1865234,0.8046875-0.2802734,1.2714844-0.2802734
	c0.8027344,0,1.3642578,0.203125,1.6884766,0.6083984c0.3232422,0.4042969,0.4404297,1.0224609,0.3505859,1.8544922
	l-0.46875,4.3847656h-1.4277344l0.4443359-4.1455078c0.0546875-0.5146484-0.0039063-0.8984375-0.171875-1.1523438
	c-0.1699219-0.2529297-0.4619141-0.3789063-0.8740234-0.3789063c-0.5566406,0-0.9814453,0.171875-1.2763672,0.5185547
	c-0.2939453,0.3466797-0.4794922,0.8798828-0.5566406,1.5957031L129.7143555,55.6972656z"/>
<path fill="#FFFFFF" d="M139.6254883,50.0205078c-0.5771484,0-1.0087891,0.1699219-1.2978516,0.5078125
	s-0.4804688,0.9052734-0.5742188,1.6972656l-0.0107422,0.0976563c-0.0878906,0.8203125-0.0224609,1.4111328,0.1982422,1.7783203
	c0.2197266,0.3671875,0.6240234,0.5498047,1.2109375,0.5498047c0.5058594,0,0.9121094-0.2011719,1.2158203-0.6015625
	c0.3046875-0.4003906,0.4980469-0.9814453,0.5791016-1.7392578
	C141.1098633,50.7832031,140.668457,50.0205078,139.6254883,50.0205078 M140.1196289,48.8496094
	c0.8398438,0,1.4609375,0.3056641,1.8632813,0.9130859c0.4033203,0.6083984,0.5449219,1.4609375,0.4267578,2.5605469
	c-0.1181641,1.1044922-0.4462891,1.9628906-0.9853516,2.5771484c-0.5410156,0.6142578-1.2314453,0.921875-2.0742188,0.921875
	c-0.8505859,0-1.4794922-0.3076172-1.8828125-0.9199219h-0.0976563l-0.3466797,0.7949219h-1.0703125l1.0126953-9.4619141h1.4296875
	l-0.2412109,2.2490234c-0.0175781,0.1660156-0.0527344,0.4150391-0.1044922,0.7431641s-0.0859375,0.5371094-0.1035156,0.6269531
	h0.0615234C138.5317383,49.1835938,139.237793,48.8496094,140.1196289,48.8496094z"/>
<path fill="#FFFFFF" d="M147.0004883,49.9326172c-0.4541016,0-0.8330078,0.1435547-1.1376953,0.4316406
	c-0.3046875,0.2890625-0.5117188,0.7099609-0.625,1.2617188h3.0507813c0.0507813-0.5556641-0.0361328-0.9765625-0.265625-1.2636719
	C147.7944336,50.0761719,147.4526367,49.9326172,147.0004883,49.9326172 M146.6313477,55.8222656
	c-1.0458984,0-1.8300781-0.3056641-2.3544922-0.9150391c-0.5234375-0.6103516-0.7285156-1.453125-0.6142578-2.5234375
	c0.1181641-1.0976563,0.484375-1.9628906,1.0976563-2.5917969c0.6152344-0.6289063,1.3994141-0.9423828,2.3564453-0.9423828
	c0.8857422,0,1.5585938,0.2705078,2.015625,0.8095703c0.4560547,0.5390625,0.6347656,1.2822266,0.5332031,2.2285156
	l-0.0830078,0.7714844h-4.4775391c-0.0507813,0.6523438,0.0712891,1.1542969,0.3652344,1.5048828
	c0.296875,0.3505859,0.7451172,0.5244141,1.3496094,0.5244141c0.3955078,0,0.7695313-0.0371094,1.1191406-0.1113281
	c0.3505859-0.0751953,0.7333984-0.1992188,1.1445313-0.3740234l-0.1240234,1.1621094
	c-0.3671875,0.1660156-0.7324219,0.2841797-1.0966797,0.3525391
	C147.5004883,55.7871094,147.0883789,55.8222656,146.6313477,55.8222656z"/>
<path fill="#FFFFFF" d="M155.0249023,48.8496094c0.2880859,0,0.5224609,0.0205078,0.7050781,0.0605469l-0.2841797,1.3320313
	c-0.1962891-0.0478516-0.4052734-0.0722656-0.6230469-0.0722656c-0.5703125,0-1.0527344,0.1865234-1.4472656,0.5576172
	c-0.3945313,0.3740234-0.6240234,0.859375-0.6875,1.4550781l-0.3759766,3.5146484h-1.4296875l0.7197266-6.7226563h1.1181641
	l0.0625,1.1826172h0.0722656c0.2646484-0.4003906,0.5917969-0.7197266,0.9736328-0.9550781
	C154.2133789,48.9677734,154.6118164,48.8496094,155.0249023,48.8496094"/>
</svg>
