<?xml version="1.0" encoding="utf-8"?>
<!-- Generator: Adobe Illustrator 16.0.3, SVG Export Plug-In . SVG Version: 6.00 Build 0)  -->
<!DOCTYPE svg PUBLIC "-//W3C//DTD SVG 1.1//EN" "http://www.w3.org/Graphics/SVG/1.1/DTD/svg11.dtd">
<svg version="1.1" id="Ebene_1" xmlns="http://www.w3.org/2000/svg" xmlns:xlink="http://www.w3.org/1999/xlink" x="0px" y="0px"
	 width="92.2143555px" height="89.2265625px" viewBox="0 0 92.2143555 89.2265625"
	 enable-background="new 0 0 92.2143555 89.2265625" xml:space="preserve">
<g>
	<polygon fill-rule="evenodd" clip-rule="evenodd" fill="#005EB8" points="84.3764648,74.5761719 92.2143555,0 8.7700195,0 
		0,83.4433594 55.0209961,89.2265625 56.2504883,77.5322266 	"/>
	<path fill-rule="evenodd" clip-rule="evenodd" fill="#FFFFFF" d="M72.7016602,15.3652344
		c0.0820313-0.7749023,0.3632813-1.3442383,0.8515625-1.7084961c0.4882813-0.3588867,1.0654297-0.5410156,1.7373047-0.5410156
		c0.7236328,0,1.2773438,0.1992188,1.6630859,0.5976563c0.3847656,0.4047852,0.5429688,0.9516602,0.4697266,1.6518555
		c-0.0712891,0.6777344-0.3496094,1.21875-0.8251953,1.6230469c-0.4746094,0.3994141-1.0654297,0.5986328-1.7773438,0.5986328
		c-0.671875,0-1.2119141-0.1821289-1.6240234-0.5410156C72.7856445,16.6811523,72.621582,16.1230469,72.7016602,15.3652344"/>
	<path fill-rule="evenodd" clip-rule="evenodd" fill="#FFFFFF" d="M65.4018555,15.3652344
		c0.0761719-0.7236328,0.3398438-1.2758789,0.796875-1.668457c0.4619141-0.387207,1.0458984-0.5810547,1.7587891-0.5810547
		c0.734375,0,1.2880859,0.2050781,1.6601563,0.6147461c0.3730469,0.4101563,0.5263672,0.9570313,0.4550781,1.6347656
		c-0.0703125,0.671875-0.3378906,1.2075195-0.8076172,1.6118164c-0.4638672,0.4042969-1.0546875,0.6098633-1.7783203,0.6098633
		c-0.7119141,0-1.2548828-0.1938477-1.6357422-0.5869141C65.4760742,16.6123047,65.3286133,16.065918,65.4018555,15.3652344"/>
	<path fill-rule="evenodd" clip-rule="evenodd" fill="#FFFFFF" d="M80.902832,20.0473633l-1.6601563,15.7949219
		c-0.1894531,1.7998047-0.7597656,3.3833008-1.7050781,4.7387695c-0.9521484,1.3613281-2.2236328,2.3979492-3.8261719,3.1210938
		c-1.6025391,0.7236328-3.4404297,1.0883789-5.5253906,1.0883789c-3.1328125,0-5.4853516-0.8032227-7.0537109-2.4150391
		c-1.5683594-1.6064453-2.203125-3.8051758-1.9091797-6.6020508l1.6533203-15.7260742h5.1542969l-1.5703125,14.9399414
		c-0.1982422,1.8857422,0.0390625,3.2641602,0.6982422,4.1411133c0.6650391,0.8828125,1.8720703,1.3217773,3.6210938,1.3217773
		c1.6914063,0,2.9628906-0.4443359,3.8183594-1.3276367c0.8564453-0.8823242,1.3837891-2.2724609,1.5830078-4.1630859
		l1.5673828-14.9121094H80.902832z"/>
	<path fill-rule="evenodd" clip-rule="evenodd" fill="#FFFFFF" d="M56.3354492,32.0141602
		c-0.421875,4.0161133-1.8847656,7.0917969-4.3935547,9.2275391c-2.5136719,2.1357422-5.9248047,3.206543-10.2416992,3.206543
		H34.796875l2.5644531-24.4008789h7.6557617c3.9814453,0,6.9628906,1.0537109,8.9462891,3.1552734
		C55.940918,25.3046875,56.7319336,28.2436523,56.3354492,32.0141602 M50.9506836,32.1455078
		c0.5507813-5.2402344-1.4863281-7.8603516-6.1113281-7.8603516h-2.7514648l-1.6704102,15.8916016h2.2211914
		C47.6166992,40.1767578,50.387207,37.4995117,50.9506836,32.1455078z"/>
	<path fill-rule="evenodd" clip-rule="evenodd" fill="#FFFFFF" d="M16.0170898,20.0473633h7.5922852
		c3.4633789,0,5.9238281,0.4897461,7.3803711,1.4755859c1.4628906,0.9848633,2.0791016,2.5512695,1.8525391,4.7045898
		c-0.152832,1.4580078-0.6206055,2.6538086-1.4023438,3.5883789C30.6582031,30.75,29.6875,31.3134766,28.5341797,31.5014648
		l-0.0170898,0.1655273c1.5068359,0.347168,2.5556641,0.9912109,3.1396484,1.9365234
		c0.5898438,0.9453125,0.7993164,2.2045898,0.6347656,3.7709961c-0.2338867,2.2265625-1.2246094,3.9580078-2.9624023,5.2055664
		c-1.7373047,1.2475586-3.9838867,1.8681641-6.746582,1.8681641h-9.1303711L16.0170898,20.0473633z M20.171875,29.7192383h3.0078125
		c1.4008789,0,2.4375-0.2167969,3.1152344-0.6499023c0.6728516-0.4379883,1.0615234-1.1557617,1.1669922-2.1582031
		c0.0991211-0.9399414-0.1733398-1.6064453-0.8134766-2.0166016c-0.640625-0.4042969-1.7016602-0.609375-3.1821289-0.609375
		h-2.7231445L20.171875,29.7192383z M19.7412109,33.8198242l-0.668457,6.3569336h3.3720703
		c1.4296875,0,2.5068359-0.2734375,3.2421875-0.8203125c0.7397461-0.5410156,1.1640625-1.378418,1.2822266-2.5004883
		c0.2124023-2.0224609-1.1279297-3.0361328-4.0214844-3.0361328H19.7412109z"/>
	<path fill="#FFFFFF" d="M15.1523438,64.7041016l-1.7822266-7.4248047h-0.0498047
		c-0.0473633,1.1044922-0.125,2.1376953-0.2285156,3.1025391l-0.4624023,4.3222656h-1.3178711l0.9516602-8.8896484h2.0478516
		l1.7124023,7.0712891h0.0351563l3.2993164-7.0712891h2.0541992l-0.9516602,8.8896484h-1.3964844l0.4707031-4.3974609
		c0.0473633-0.4414063,0.1191406-1.0166016,0.2177734-1.7255859c0.0966797-0.7099609,0.1640625-1.1396484,0.1962891-1.2890625
		h-0.0498047l-3.4619141,7.4121094H15.1523438z"/>
	<path fill="#FFFFFF" d="M23.4750977,56.2001953c0.0268555-0.2548828,0.1166992-0.4521484,0.2724609-0.5888672
		c0.1538086-0.1396484,0.3603516-0.2080078,0.6196289-0.2080078c0.2514648,0,0.440918,0.0683594,0.5654297,0.2080078
		c0.1245117,0.1367188,0.1733398,0.3339844,0.1459961,0.5888672c-0.0258789,0.2431641-0.1166992,0.4335938-0.2709961,0.5751953
		c-0.1533203,0.1386719-0.3583984,0.2089844-0.609375,0.2089844c-0.2597656,0-0.4506836-0.0703125-0.5751953-0.2089844
		C23.496582,56.6337891,23.4487305,56.4433594,23.4750977,56.2001953 M24.0771484,64.7041016h-1.4272461l0.7197266-6.7236328
		h1.4272461L24.0771484,64.7041016z"/>
	<path fill="#FFFFFF" d="M28.734375,63.6708984c0.3486328,0,0.703125-0.0546875,1.0634766-0.1640625l-0.1152344,1.0791016
		c-0.1655273,0.0683594-0.3769531,0.1259766-0.6308594,0.171875c-0.2543945,0.0478516-0.5136719,0.0703125-0.78125,0.0703125
		c-1.3530273,0-1.9536133-0.7138672-1.800293-2.140625l0.3876953-3.6240234h-0.9189453l0.0673828-0.6318359l1.0415039-0.5234375
		l0.6381836-1.421875h0.8818359l-0.1601563,1.4941406h1.9150391l-0.1157227,1.0830078h-1.9150391l-0.3852539,3.5986328
		c-0.0371094,0.3447266,0.0209961,0.5976563,0.175293,0.7617188C28.2368164,63.5878906,28.4541016,63.6708984,28.734375,63.6708984"
		/>
	<path fill="#FFFFFF" d="M32.5073242,60.1552734c-0.0454102,0.421875,0.0302734,0.7451172,0.222168,0.9716797
		c0.1933594,0.2255859,0.4902344,0.3398438,0.8969727,0.3398438c0.8256836,0,1.2861328-0.4414063,1.3808594-1.3242188
		c0.0463867-0.4355469-0.019043-0.7734375-0.1987305-1.0097656c-0.1806641-0.2373047-0.4770508-0.3554688-0.894043-0.3554688
		c-0.4150391,0-0.7387695,0.1181641-0.9775391,0.3535156C32.7001953,59.3652344,32.5556641,59.7070313,32.5073242,60.1552734
		 M31.296875,65.7480469c-0.0332031,0.3085938,0.0786133,0.5449219,0.3388672,0.7119141
		c0.2602539,0.1660156,0.6411133,0.2480469,1.1435547,0.2480469c0.7783203,0,1.3691406-0.1113281,1.7724609-0.3339844
		c0.4057617-0.2216797,0.628418-0.5185547,0.6674805-0.8876953c0.03125-0.2900391-0.0517578-0.4980469-0.2460938-0.6220703
		c-0.1967773-0.1230469-0.578125-0.1855469-1.1445313-0.1855469h-1.0810547c-0.4091797,0-0.7451172,0.0957031-1.0063477,0.2890625
		C31.4799805,65.1601563,31.3320313,65.4199219,31.296875,65.7480469z M37.4091797,57.9804688l-0.0839844,0.7851563
		l-1.171875,0.2109375c0.090332,0.1416016,0.1586914,0.3154297,0.2050781,0.5234375
		c0.0463867,0.2070313,0.0585938,0.4248047,0.0336914,0.6552734c-0.074707,0.6953125-0.3710938,1.2392578-0.8935547,1.6376953
		c-0.5195313,0.3964844-1.1987305,0.5957031-2.0371094,0.5957031c-0.2158203,0-0.4086914-0.0166016-0.5800781-0.0478516
		c-0.3271484,0.1884766-0.5048828,0.4130859-0.5322266,0.6679688c-0.0161133,0.1533203,0.0419922,0.2695313,0.1787109,0.3466797
		c0.1347656,0.0761719,0.3945313,0.1162109,0.7802734,0.1162109h1.1728516c0.7402344,0,1.2880859,0.1572266,1.6381836,0.4726563
		c0.3525391,0.3154297,0.4946289,0.7724609,0.4306641,1.3681641c-0.081543,0.7607422-0.4575195,1.3466797-1.1303711,1.7587891
		c-0.6708984,0.4130859-1.6020508,0.6210938-2.7890625,0.6210938c-0.9150391,0-1.5966797-0.1621094-2.0439453-0.4863281
		c-0.4467773-0.3232422-0.6401367-0.7861328-0.5756836-1.3837891c0.0439453-0.4150391,0.2119141-0.7617188,0.5039063-1.0429688
		c0.2915039-0.28125,0.6791992-0.4755859,1.1601563-0.5859375c-0.1821289-0.0810547-0.3237305-0.2109375-0.4291992-0.3916016
		c-0.1049805-0.1806641-0.1450195-0.3701172-0.1240234-0.5693359c0.0268555-0.2509766,0.1201172-0.4628906,0.2802734-0.6367188
		c0.1616211-0.1738281,0.3896484-0.3466797,0.6879883-0.5166016c-0.3325195-0.1513672-0.5883789-0.3964844-0.7695313-0.734375
		c-0.1801758-0.3388672-0.2456055-0.734375-0.1967773-1.1894531c0.078125-0.7304688,0.3666992-1.2949219,0.8706055-1.6972656
		c0.503418-0.4003906,1.1787109-0.6015625,2.0292969-0.6015625c0.190918,0,0.3891602,0.0126953,0.5957031,0.0390625
		c0.206543,0.0273438,0.3588867,0.0566406,0.4619141,0.0849609H37.4091797z"/>
	<polygon fill="#FFFFFF" points="39.3662109,64.7041016 37.9389648,64.7041016 38.9516602,55.2412109 40.3789063,55.2412109 	"/>
	<path fill="#FFFFFF" d="M42.2353516,56.2001953c0.0273438-0.2548828,0.1166992-0.4521484,0.2729492-0.5888672
		c0.1538086-0.1396484,0.3603516-0.2080078,0.6196289-0.2080078c0.2509766,0,0.440918,0.0683594,0.5649414,0.2080078
		c0.1245117,0.1367188,0.1738281,0.3339844,0.1464844,0.5888672c-0.0263672,0.2431641-0.1166992,0.4335938-0.2709961,0.5751953
		c-0.1538086,0.1386719-0.3583984,0.2089844-0.6098633,0.2089844c-0.2592773,0-0.4506836-0.0703125-0.5751953-0.2089844
		C42.2573242,56.6337891,42.2094727,56.4433594,42.2353516,56.2001953 M42.8378906,64.7041016h-1.4277344l0.7197266-6.7236328
		h1.4277344L42.8378906,64.7041016z"/>
	<path fill="#FFFFFF" d="M48.1713867,58.9394531c-0.4541016,0-0.8330078,0.1435547-1.1376953,0.4316406
		s-0.5117188,0.7099609-0.625,1.2617188h3.0507813c0.0507813-0.5556641-0.0361328-0.9775391-0.265625-1.2636719
		C48.965332,59.0830078,48.6235352,58.9394531,48.1713867,58.9394531 M47.8032227,64.828125
		c-1.046875,0-1.8310547-0.3046875-2.3554688-0.9150391c-0.5239258-0.609375-0.7285156-1.4521484-0.6137695-2.5234375
		c0.1176758-1.0976563,0.484375-1.9628906,1.097168-2.5908203c0.6152344-0.6289063,1.3994141-0.9423828,2.3564453-0.9423828
		c0.8857422,0,1.5585938,0.2695313,2.015625,0.8095703c0.4560547,0.5390625,0.6347656,1.2822266,0.5332031,2.2285156
		l-0.0830078,0.7714844h-4.4775391c-0.0507813,0.6513672,0.0712891,1.1542969,0.3662109,1.5048828
		c0.2958984,0.3505859,0.7441406,0.5244141,1.3486328,0.5244141c0.3955078,0,0.7695313-0.0371094,1.1191406-0.1123047
		c0.3505859-0.0742188,0.7333984-0.1992188,1.1445313-0.3730469l-0.1240234,1.1621094
		c-0.3662109,0.1660156-0.7324219,0.2841797-1.0966797,0.3525391C48.6713867,64.7929688,48.2592773,64.828125,47.8032227,64.828125z
		"/>
	<path fill="#FFFFFF" d="M54.8139648,63.6708984c0.5888672,0,1.0341797-0.1660156,1.3349609-0.4960938
		c0.3027344-0.3300781,0.4990234-0.8652344,0.5878906-1.6083984l0.0205078-0.1992188
		c0.0908203-0.8466797,0.0166016-1.4482422-0.2216797-1.8056641c-0.2353516-0.3564453-0.6474609-0.5351563-1.2353516-0.5351563
		c-0.5039063,0-0.9121094,0.2041016-1.2275391,0.6103516c-0.3154297,0.4091797-0.5117188,0.9873047-0.5927734,1.7431641
		c-0.0800781,0.7451172-0.0107422,1.3134766,0.2119141,1.703125C53.9125977,63.4755859,54.2866211,63.6708984,54.8139648,63.6708984
		 M54.3081055,64.828125c-0.8388672,0-1.4619141-0.3046875-1.8652344-0.9130859
		c-0.40625-0.6074219-0.5498047-1.4599609-0.4316406-2.5605469c0.1181641-1.1035156,0.4492188-1.9628906,0.9892578-2.5771484
		c0.5410156-0.6142578,1.234375-0.9208984,2.0761719-0.9208984c0.8847656,0,1.5214844,0.3251953,1.9150391,0.9794922h0.0722656
		c-0.0166016-0.4814453-0.0117188-0.8632813,0.0185547-1.1435547l0.2617188-2.4511719h1.4365234l-1.0126953,9.4628906h-1.1191406
		l-0.1542969-0.8798828h-0.0683594C55.8979492,64.4941406,55.1918945,64.828125,54.3081055,64.828125z"/>
</g>
</svg>
